<svg xmlns="http://www.w3.org/2000/svg" viewBox="0 0 24 24"><defs><style>.a{fill:#fcfffd;fill-rule:evenodd;}</style></defs><g transform="translate(-0.82)"><path class="a" d="M12.82,20.683a8.229,8.229,0,0,0,4.125-1.1,8.614,8.614,0,0,0,3.087-2.8,2.634,2.634,0,0,0-1.356-2.019A9.957,9.957,0,0,0,15.733,13.5a11.418,11.418,0,0,0-2.928-.433,11.418,11.418,0,0,0-2.928.433,9.547,9.547,0,0,0-2.913,1.269,2.634,2.634,0,0,0-1.356,2.019,8.614,8.614,0,0,0,3.087,2.8A8.335,8.335,0,0,0,12.82,20.683Zm0-17.077a3.478,3.478,0,0,0-1.788.49A3.658,3.658,0,0,0,9.7,5.423,3.507,3.507,0,0,0,9.7,9a3.658,3.658,0,0,0,1.327,1.327,3.507,3.507,0,0,0,3.577,0A3.658,3.658,0,0,0,15.935,9a3.507,3.507,0,0,0,0-3.577A3.658,3.658,0,0,0,14.608,4.1,3.478,3.478,0,0,0,12.82,3.606ZM12.82,0a11.8,11.8,0,0,1,6.087,1.644,11.373,11.373,0,0,1,4.269,4.269A11.8,11.8,0,0,1,24.82,12a11.8,11.8,0,0,1-1.644,6.087,11.373,11.373,0,0,1-4.269,4.269A11.8,11.8,0,0,1,12.82,24a11.8,11.8,0,0,1-6.087-1.644,11.589,11.589,0,0,1-4.269-4.3A11.749,11.749,0,0,1,.82,12,12.007,12.007,0,0,1,6.762,1.644,11.749,11.749,0,0,1,12.82,0Z" transform="translate(0 0)"/></g></svg>